#define logo_01_width 225
#define logo_01_height 225
static unsigned short logo_01_bits[] = {
   0x0000, 0x0000, 0x0000, 0x0000, 0x0000, 0x0000, 0x0000, 0x0000, 0x0000,
   0x0000, 0x0000, 0x0000, 0x0000, 0x0000, 0x0000, 0x0000, 0x0000, 0x0000,
   0x0000, 0x0000, 0x0000, 0x0000, 0x0000, 0x0000, 0x0000, 0x0000, 0x0000,
   0x0000, 0x0000, 0x0000, 0x0000, 0x0000, 0x0000, 0x0000, 0x0000, 0x0000,
   0x0000, 0x0000, 0x0000, 0x0000, 0x0000, 0x0000, 0x0000, 0x0000, 0x0000,
   0x0000, 0x0000, 0x0000, 0x0000, 0x0000, 0x0000, 0x0000, 0x0000, 0x0000,
   0x0000, 0x0000, 0x0000, 0x0000, 0x0000, 0x0000, 0x0000, 0x0000, 0x0000,
   0x0000, 0x0000, 0x0000, 0x0000, 0x0000, 0x0000, 0x0000, 0x0000, 0x0000,
   0x0000, 0x0000, 0x0000, 0x0000, 0x0000, 0x0000, 0x0000, 0x0000, 0x0000,
   0x0000, 0x0000, 0x0000, 0x0000, 0x0000, 0x0000, 0x0000, 0x0000, 0x0000,
   0x0000, 0x0000, 0x0000, 0x0000, 0x0000, 0x0000, 0x0000, 0x0000, 0x0000,
   0x0000, 0x0000, 0x0000, 0x0000, 0x0000, 0x0000, 0x0000, 0x0000, 0x0000,
   0x0000, 0x0000, 0x0000, 0x0000, 0x0000, 0x0000, 0x0000, 0x0000, 0x0000,
   0x0000, 0x0000, 0x0000, 0x0000, 0x0000, 0x0000, 0x0000, 0x0000, 0x0000,
   0x0000, 0x0000, 0x0000, 0x0000, 0x0000, 0x0000, 0x0000, 0x0000, 0x0000,
   0x0000, 0x0000, 0x0000, 0x0000, 0x0000, 0xbbba, 0x001b, 0x6000, 0x7777,
   0x0001, 0x0000, 0x0000, 0x0000, 0x0000, 0x0000, 0x0000, 0x0000, 0x0000,
   0x0000, 0xc000, 0xffff, 0x00ff, 0xfc00, 0xffff, 0x0007, 0x0000, 0x0000,
   0x0000, 0x0000, 0x0000, 0x0000, 0x0000, 0x0000, 0x0000, 0xe000, 0xffff,
   0x01ff, 0xfe00, 0xffff, 0x001f, 0x0000, 0x0000, 0x0000, 0x0000, 0x0000,
   0x0000, 0x0000, 0x0000, 0x0000, 0xf000, 0xffff, 0x03ff, 0xff00, 0xffff,
   0x001f, 0x0000, 0x0000, 0x0000, 0x0000, 0x0000, 0x0000, 0x0000, 0x0000,
   0x0000, 0xf800, 0x7f6b, 0x03fb, 0xdf80, 0xb5fa, 0x003f, 0x0000, 0x0000,
   0x0000, 0x0000, 0x0000, 0x0000, 0x0000, 0x0000, 0x0000, 0xf800, 0x1e00,
   0x07c0, 0x0f80, 0x00f0, 0x003e, 0x0000, 0x0000, 0x0000, 0x0000, 0x0000,
   0x0000, 0x0000, 0x0000, 0x0000, 0x7800, 0x0e00, 0x0780, 0x0780, 0x00e0,
   0x007c, 0x0000, 0x0000, 0x0000, 0x0000, 0x0000, 0x0000, 0x0000, 0x0000,
   0x0000, 0x7800, 0x0000, 0x0780, 0x07c0, 0x0080, 0x0078, 0x0000, 0x0000,
   0x0000, 0x0000, 0x0000, 0x0000, 0x0000, 0x0000, 0x0000, 0x7c00, 0x0f00,
   0x0780, 0x07c0, 0x01e0, 0x0078, 0x0000, 0x0000, 0x0000, 0x0000, 0x0000,
   0x0000, 0x0000, 0x0000, 0x0000, 0x3c00, 0x0f00, 0x0780, 0x0780, 0x01e0,
   0x0078, 0x0000, 0x0000, 0x0000, 0x0000, 0x0000, 0x0000, 0x0000, 0x0000,
   0x0000, 0x3c00, 0x0f00, 0x0780, 0x07c0, 0x01e0, 0x00f8, 0x0000, 0x0000,
   0x0000, 0x0000, 0x0000, 0x0000, 0x0000, 0x0000, 0x0000, 0x3c00, 0x0f00,
   0x0780, 0x0780, 0x03e0, 0x00f8, 0x0000, 0x0000, 0x0000, 0x0000, 0x0000,
   0x0000, 0x0000, 0x0000, 0x0000, 0x3c00, 0x0f00, 0x0780, 0x0780, 0x03e0,
   0x00f0, 0x0000, 0x0000, 0x0000, 0x0000, 0x0000, 0x0000, 0x0000, 0x0000,
   0x0000, 0x3e00, 0x0f80, 0x0780, 0x07c0, 0x03c0, 0x00f0, 0x0000, 0x0000,
   0x0000, 0x0000, 0x0000, 0x0000, 0x0000, 0x0000, 0x0000, 0x3e00, 0x0780,
   0x0780, 0x0780, 0x03c0, 0x00f0, 0x0000, 0x0000, 0x0000, 0x0000, 0x0000,
   0x0000, 0x0000, 0x0000, 0x0000, 0x1e00, 0x0780, 0x0780, 0x07c0, 0x03c0,
   0x01f0, 0x0000, 0x0000, 0x0000, 0x0000, 0x0000, 0x0000, 0x0000, 0x0000,
   0x0000, 0x1e00, 0x0200, 0x0780, 0x0780, 0x0080, 0x01f0, 0x0000, 0x0000,
   0x0000, 0x0000, 0x0000, 0x0000, 0x0000, 0x0000, 0x0000, 0x1e00, 0x0380,
   0x0780, 0x0780, 0x0380, 0x01e0, 0x0000, 0x0000, 0x0000, 0x0000, 0x0000,
   0x0000, 0x0000, 0x0000, 0x0000, 0x1f00, 0x0380, 0x0780, 0x0780, 0x0780,
   0x01e0, 0x0000, 0x0000, 0x0000, 0x0000, 0x0000, 0x0000, 0x0000, 0x0000,
   0x0000, 0x1f00, 0x07c0, 0x0780, 0x0780, 0x07c0, 0x01e0, 0x0000, 0x0000,
   0x0000, 0x0000, 0x0000, 0x0000, 0x0000, 0x0000, 0x0000, 0x0f00, 0x03c0,
   0x0780, 0x0780, 0x0780, 0x01e0, 0x0000, 0x0000, 0x0000, 0x0000, 0x0000,
   0x0000, 0x0000, 0x0000, 0x0000, 0x0f00, 0x03c0, 0x0780, 0x0780, 0x0780,
   0x03e0, 0x0000, 0x0000, 0x0000, 0x0000, 0x0000, 0x0000, 0x0000, 0x0000,
   0x0000, 0x0f00, 0x03c0, 0x0780, 0x0780, 0x0780, 0x03c0, 0x0000, 0x0000,
   0x0000, 0x0000, 0x0000, 0x0000, 0x0000, 0x0000, 0x0000, 0x0f80, 0x03c0,
   0x0780, 0x0780, 0x0780, 0x03c0, 0x0000, 0x0000, 0x0000, 0x0000, 0x0000,
   0x0000, 0x0000, 0x0000, 0x0000, 0x0f80, 0x03c0, 0x0780, 0x0780, 0x0780,
   0x03c0, 0x0000, 0x0000, 0x0000, 0x0000, 0x0000, 0x0000, 0x0000, 0x0000,
   0x0000, 0x0780, 0x01c0, 0x0780, 0x0780, 0x0700, 0x03c0, 0x0000, 0x0000,
   0x0000, 0x0000, 0x0000, 0x0000, 0x0000, 0x0000, 0x0000, 0x0780, 0x0080,
   0x0780, 0x0780, 0x0200, 0x07c0, 0x0000, 0x0000, 0x0000, 0x0000, 0x0000,
   0x0000, 0x0000, 0x0000, 0x0000, 0x0780, 0x00e0, 0x0780, 0x0780, 0x0f00,
   0x0780, 0x0000, 0x0000, 0x0000, 0x0000, 0x0000, 0x0000, 0x0000, 0x0000,
   0x0000, 0x07c0, 0x01e0, 0x0780, 0x0780, 0x0f00, 0x0780, 0x0000, 0x0000,
   0x0000, 0x0000, 0x0000, 0x0000, 0x0000, 0x0000, 0x0000, 0x07c0, 0x01e0,
   0x0780, 0x0780, 0x0f00, 0x0780, 0x0000, 0x0000, 0x0000, 0x0000, 0x0000,
   0x0000, 0x0000, 0x0000, 0x0000, 0x03c0, 0x01f0, 0x0780, 0x0780, 0x0f00,
   0x0780, 0x0000, 0x0000, 0x0000, 0x0000, 0x0000, 0x0000, 0x0000, 0x0000,
   0x0000, 0x03c0, 0x00f0, 0x0780, 0x0780, 0x1f00, 0x0f80, 0x0000, 0x0000,
   0x0000, 0x0000, 0x0000, 0x0000, 0x0000, 0x0000, 0x0000, 0x03c0, 0x00f0,
   0x0780, 0x0780, 0x1f00, 0x0f00, 0x0000, 0x0000, 0x0000, 0x0000, 0x0000,
   0x0000, 0x0000, 0x0000, 0x0000, 0x03e0, 0x00f0, 0x0780, 0x0780, 0x1e00,
   0x0f00, 0x0000, 0x0000, 0x0000, 0x0000, 0x0000, 0x0000, 0x0000, 0x0000,
   0x0000, 0x03e0, 0x00f0, 0x0780, 0x0780, 0x1e00, 0x0f00, 0x0000, 0x0000,
   0x0000, 0x0000, 0x0000, 0x0000, 0x0000, 0x0000, 0x0000, 0x01e0, 0x0020,
   0x0780, 0x0780, 0x0400, 0x0f00, 0x0000, 0x0000, 0x0000, 0x0000, 0x0000,
   0x0000, 0x0000, 0x0000, 0x0000, 0x01e0, 0x0030, 0x0780, 0x0780, 0x1c00,
   0x1f00, 0x0000, 0x0000, 0x0000, 0x0000, 0x0000, 0x0000, 0x0000, 0x0000,
   0x0000, 0x01e0, 0x0078, 0x0780, 0x0780, 0x1e00, 0x1e00, 0x0000, 0x0000,
   0x0000, 0x0000, 0x0000, 0x0000, 0x0000, 0x2100, 0x1084, 0x85f1, 0x84f8,
   0x0790, 0x8f80, 0x3e10, 0x5f42, 0x1088, 0x0842, 0x0000, 0x0000, 0x0000,
   0x0000, 0x0000, 0xffff, 0xffff, 0xffff, 0xffff, 0x07ff, 0xff80, 0xffff,
   0xffff, 0xffff, 0xffff, 0x0003, 0x0000, 0x0000, 0x0000, 0xe000, 0xffff,
   0xffff, 0xffff, 0xffff, 0x0fff, 0xff80, 0xffff, 0xffff, 0xffff, 0xffff,
   0x001f, 0x0000, 0x0000, 0x0000, 0xf000, 0xffff, 0xffff, 0xffff, 0xffff,
   0x1fff, 0xffc0, 0xffff, 0xffff, 0xffff, 0xffff, 0x003f, 0x0000, 0x0000,
   0x0000, 0xfc00, 0xffff, 0xffff, 0xffff, 0xffff, 0x3fff, 0xffc0, 0xffff,
   0xffff, 0xffff, 0xffff, 0x00ff, 0x0000, 0x0000, 0x0000, 0xfe00, 0x0001,
   0x0780, 0x0000, 0x0000, 0x3f80, 0x07c0, 0x0000, 0x0000, 0x0f00, 0x0000,
   0x01ff, 0x0000, 0x0000, 0x0000, 0x7f00, 0x0000, 0x0780, 0x0000, 0x0000,
   0x3e00, 0x03c0, 0x0000, 0x0000, 0x1f00, 0x0000, 0x03f8, 0x0000, 0x0000,
   0x0000, 0x3f80, 0x0000, 0x0780, 0x0000, 0x0000, 0x3c00, 0x03c0, 0x0000,
   0x0000, 0x0f00, 0x0000, 0x07e0, 0x0000, 0x0000, 0x0000, 0x0f80, 0x0000,
   0x0780, 0x0000, 0x0000, 0x3e00, 0x03c0, 0x0000, 0x0000, 0x1f00, 0x0000,
   0x07c0, 0x0000, 0x0000, 0x0000, 0x07c0, 0x0000, 0x0780, 0x0000, 0x0000,
   0x3c00, 0x03c0, 0x0000, 0x0000, 0x0f00, 0x0000, 0x0f80, 0x0000, 0x0000,
   0x0000, 0x07c0, 0x0000, 0x0780, 0x0000, 0x0000, 0x3e00, 0x03c0, 0x0000,
   0x0000, 0x1f00, 0x0000, 0x0f80, 0x0000, 0x0000, 0x0000, 0x03e0, 0x0000,
   0x0780, 0x0000, 0x0000, 0x3c00, 0x03c0, 0x0000, 0x0000, 0x0f00, 0x0000,
   0x1f00, 0x0000, 0x0000, 0x0000, 0x01e0, 0x0000, 0x0780, 0x0000, 0x0000,
   0x3c00, 0x03c0, 0x0000, 0x0000, 0x1f00, 0x0000, 0x1e00, 0x0000, 0x0000,
   0x0000, 0x01f0, 0x0000, 0x0780, 0x0000, 0x0000, 0x3e00, 0x03c0, 0x0000,
   0x0000, 0x0f00, 0x0000, 0x3e00, 0x0000, 0x0000, 0x0000, 0x01f0, 0x0000,
   0x0780, 0x0000, 0x0000, 0x3c00, 0x03c0, 0x0000, 0x0000, 0x1f00, 0x0000,
   0x3e00, 0x0000, 0x0000, 0x0000, 0x00f0, 0x0000, 0x0780, 0x0000, 0x0000,
   0x3e00, 0x03c0, 0x0000, 0x0000, 0x0f00, 0x0000, 0x3c00, 0x0000, 0x0000,
   0x0000, 0xfff0, 0xffff, 0x07ff, 0x0000, 0x0000, 0xfc00, 0x03ff, 0x0000,
   0x0000, 0xff00, 0xffff, 0x3fff, 0x0000, 0x0000, 0x0000, 0xfff0, 0xffff,
   0x07ff, 0x0000, 0x0000, 0xfe00, 0x03ff, 0x0000, 0x0000, 0xff00, 0xffff,
   0x3fff, 0x0000, 0x0000, 0x0000, 0xfff0, 0xffff, 0x07ff, 0x0000, 0x0000,
   0xfc00, 0x03ff, 0x0000, 0x0000, 0xff00, 0xffff, 0x3fff, 0x0000, 0x0000,
   0x0000, 0xfff0, 0xffff, 0x07ff, 0x0000, 0x0000, 0xfe00, 0x03ff, 0x0000,
   0x0000, 0xff00, 0xffff, 0x3fff, 0x0000, 0x0000, 0x0000, 0x01f0, 0x8000,
   0x0790, 0x0000, 0x0000, 0x3c00, 0x03e0, 0x0000, 0x0000, 0x1f00, 0x0000,
   0x3c40, 0x0000, 0x0000, 0x0000, 0x00f0, 0x0000, 0x0780, 0x0000, 0x0000,
   0x3e00, 0x03c0, 0x0000, 0x0000, 0x1f00, 0x0000, 0x3c00, 0x0000, 0x0000,
   0x0000, 0x00f0, 0x0000, 0x0780, 0x0000, 0x0000, 0x3c00, 0x03c0, 0x0000,
   0x0000, 0x0f00, 0x0000, 0x3c00, 0x0000, 0x0000, 0x0000, 0x00f0, 0x0000,
   0x0780, 0x0000, 0x0000, 0x3e00, 0x03c0, 0x0000, 0x0000, 0x1f00, 0x0000,
   0x3c00, 0x0000, 0x0000, 0x0000, 0x00f0, 0x0000, 0x0780, 0x0000, 0x0000,
   0x3c00, 0x03c0, 0x0000, 0x0000, 0x1f00, 0x0000, 0x3c00, 0x0000, 0x0000,
   0x0000, 0x00f0, 0x0000, 0x0780, 0x0000, 0x0000, 0x3e00, 0x03c0, 0x0000,
   0x0000, 0x0f00, 0x0000, 0x3c00, 0x0000, 0x0000, 0x0000, 0x00f0, 0x0000,
   0x0780, 0x0000, 0x0000, 0x3c00, 0x03c0, 0x0000, 0x0000, 0x1f00, 0x0000,
   0x3c00, 0x0000, 0x0000, 0x0000, 0x00f0, 0x0000, 0x0780, 0x0000, 0x0000,
   0x3e00, 0x03c0, 0x0000, 0x0000, 0x0f00, 0x0000, 0x3c00, 0x0000, 0x0000,
   0x0000, 0x00f0, 0x0000, 0x0780, 0x0000, 0x0000, 0x3c00, 0x03c0, 0x0000,
   0x0000, 0x1f00, 0x0000, 0x3c00, 0x0000, 0x0000, 0x0000, 0x00f0, 0x0000,
   0x0780, 0x0000, 0x0000, 0x3e00, 0x03c0, 0x0000, 0x0000, 0x0f00, 0x0000,
   0x3c00, 0x0000, 0x0000, 0x0000, 0x00f0, 0x0000, 0x0780, 0x0000, 0x0000,
   0x3c00, 0x03c0, 0x0000, 0x0000, 0x1f00, 0x0000, 0x3c00, 0x0000, 0x0000,
   0x0000, 0x00f0, 0x0000, 0x5f80, 0x5555, 0x5555, 0x3f55, 0x57c0, 0x5555,
   0x5555, 0x0fd5, 0x0000, 0x3c00, 0x0000, 0x0000, 0x0000, 0x00f0, 0x0000,
   0xff80, 0xffff, 0xffff, 0x1fff, 0xffc0, 0xffff, 0xffff, 0x0fff, 0x0000,
   0x3c00, 0x0000, 0x0000, 0x0000, 0x00f0, 0x0000, 0xff00, 0xffff, 0xffff,
   0x1fff, 0xff80, 0xffff, 0xffff, 0x07ff, 0x0000, 0x3c00, 0x0000, 0x0000,
   0x0000, 0x00f0, 0x0000, 0xfe00, 0xffff, 0xffff, 0x0fff, 0xff00, 0xffff,
   0xffff, 0x07ff, 0x0000, 0x3c00, 0x0000, 0x0000, 0x0000, 0x00f0, 0x0000,
   0xf800, 0xffff, 0xffff, 0x03ff, 0xfe00, 0xffff, 0xffff, 0x00ff, 0x0000,
   0x3c00, 0x0000, 0x0000, 0x0000, 0x00f0, 0x0000, 0x8000, 0x0007, 0x001e,
   0x01e0, 0x1e00, 0xe000, 0xf001, 0x0000, 0x0000, 0x3c00, 0x0000, 0x0000,
   0x0000, 0x00f0, 0x0000, 0x8000, 0x0007, 0x000e, 0x01f0, 0x1e00, 0xc000,
   0xe001, 0x0001, 0x0000, 0x3c00, 0x0000, 0x0000, 0x0000, 0x00f0, 0x0000,
   0x8000, 0x0007, 0x0000, 0x01f0, 0x1e00, 0x0000, 0xe000, 0x0001, 0x0000,
   0x3c00, 0x0000, 0x0000, 0x0000, 0x00f0, 0x0000, 0xc000, 0x0007, 0x0004,
   0x00f0, 0x1e00, 0x0000, 0xe000, 0x0001, 0x0000, 0x3c00, 0x0000, 0x0000,
   0x0000, 0x00f0, 0x0000, 0xc000, 0x0007, 0x000f, 0x01f0, 0x1e00, 0xc000,
   0xe003, 0x0001, 0x0000, 0x3c00, 0x0000, 0x0000, 0x0000, 0x00f0, 0x0000,
   0xc000, 0x0003, 0x000f, 0x00f0, 0x1e00, 0xc000, 0xe003, 0x0003, 0x0000,
   0x3c00, 0x0000, 0x0000, 0x0000, 0x00f0, 0x0000, 0xc000, 0x0003, 0x000f,
   0x00f0, 0x1e00, 0xc000, 0xc003, 0x0003, 0x0000, 0x3c00, 0x0000, 0x0000,
   0x0000, 0x00f0, 0x0000, 0xc000, 0x0003, 0x000f, 0x01f0, 0x1e00, 0xc000,
   0xc003, 0x0003, 0x0000, 0x3c00, 0x0000, 0x0000, 0x0000, 0x00f0, 0x0000,
   0xc000, 0x0003, 0x000f, 0x00f0, 0x1e00, 0xc000, 0xc003, 0x0003, 0x0000,
   0x3c00, 0x0000, 0x0000, 0x0000, 0x00f0, 0x0000, 0xe000, 0x8003, 0x000f,
   0x00f0, 0x1e00, 0xc000, 0xc003, 0x0003, 0x0000, 0x3c00, 0x0000, 0x0000,
   0x0000, 0x00f0, 0x0000, 0xe000, 0x8001, 0x000f, 0x00f0, 0x3e00, 0xc000,
   0xc007, 0x0007, 0x0000, 0x3c00, 0x0000, 0x0000, 0x0000, 0x00f0, 0x0000,
   0xe000, 0x8001, 0x0007, 0x00f0, 0x1e00, 0xc000, 0x8003, 0x0007, 0x0000,
   0x3c00, 0x0000, 0x0000, 0x0000, 0x00f0, 0x0000, 0xe000, 0x0001, 0x0007,
   0x00f0, 0x3e00, 0x8000, 0x8003, 0x0007, 0x0000, 0x3c00, 0x0000, 0x0000,
   0x0000, 0x00f0, 0x0000, 0xf000, 0x0001, 0x0002, 0x00f0, 0x1e00, 0x0000,
   0x8001, 0x0007, 0x0000, 0x3c00, 0x0000, 0x0000, 0x0000, 0x00f0, 0x0000,
   0xf000, 0x0001, 0x0000, 0x00f0, 0x3e00, 0x0000, 0x8000, 0x0007, 0x0000,
   0x3c00, 0x0000, 0x0000, 0x0000, 0x00f0, 0x0000, 0xf000, 0x8000, 0x0003,
   0x00f0, 0x3c00, 0x8000, 0x8003, 0x000f, 0x0000, 0x3c00, 0x0000, 0x0000,
   0x0000, 0x00f0, 0x0000, 0xf000, 0x8000, 0x0007, 0x00f0, 0x3e00, 0x8000,
   0x8007, 0x000f, 0x0000, 0x3c00, 0x0000, 0x0000, 0x0000, 0x55fc, 0x5555,
   0xfd55, 0xd555, 0xaaaf, 0x55fa, 0xbf55, 0xeaaa, 0xaaaf, 0x555f, 0x5555,
   0x7d55, 0x0000, 0x0000, 0x8000, 0xffff, 0xffff, 0xffff, 0xffff, 0xffff,
   0xffff, 0xffff, 0xffff, 0xffff, 0xffff, 0xffff, 0xffff, 0x0003, 0x0000,
   0xe000, 0xffff, 0xffff, 0xffff, 0xffff, 0xffff, 0xffff, 0xffff, 0xffff,
   0xffff, 0xffff, 0xffff, 0xffff, 0x000f, 0x0000, 0xf000, 0xffff, 0xffff,
   0xffff, 0xffff, 0xffff, 0xffff, 0xffff, 0xffff, 0xffff, 0xffff, 0xffff,
   0xffff, 0x001f, 0x0000, 0xf800, 0xffff, 0xffff, 0xffff, 0xffff, 0xffff,
   0xffff, 0xffff, 0xffdb, 0xffff, 0xffff, 0xffff, 0xffff, 0x003f, 0x0000,
   0xfc00, 0x5804, 0x0000, 0x0000, 0x0000, 0x0000, 0x0000, 0x0000, 0x0000,
   0x0000, 0x0000, 0x0000, 0x4007, 0x007e, 0x0000, 0x7e00, 0x2604, 0x0000,
   0x0000, 0x0000, 0x0000, 0x0000, 0x0000, 0x0000, 0x0000, 0x0000, 0x0000,
   0x401a, 0x007c, 0x0000, 0x3e00, 0x2102, 0x0000, 0x0000, 0x0000, 0x0000,
   0x0000, 0x0000, 0x0000, 0x0000, 0x0000, 0x0000, 0x4064, 0x00f8, 0x0000,
   0x1e00, 0x20c2, 0x0000, 0x0000, 0x0000, 0x0000, 0x0000, 0x0000, 0x0000,
   0x0000, 0x0000, 0x0000, 0x4084, 0x00f0, 0x0000, 0x1f00, 0x1042, 0x0000,
   0x0000, 0x0000, 0x0000, 0x0000, 0x0000, 0x0000, 0x0000, 0x0000, 0x0000,
   0x4108, 0x00f0, 0x0000, 0x1f00, 0x1022, 0x0000, 0x0000, 0x0000, 0x0000,
   0x0000, 0x0000, 0x0000, 0x0000, 0x0000, 0x0000, 0x4208, 0x01f0, 0x0000,
   0x0f00, 0x1022, 0x0000, 0x0000, 0x0000, 0x0000, 0x0000, 0x0000, 0x0000,
   0x0000, 0x0000, 0x0000, 0x4210, 0x01e0, 0x0000, 0x1f00, 0x1012, 0x0000,
   0x0000, 0x0000, 0x0000, 0x0000, 0x0000, 0x0000, 0x0000, 0x0000, 0x0000,
   0x4410, 0x01f0, 0x0000, 0x0f00, 0x1014, 0x0000, 0x0000, 0x0000, 0x0000,
   0x0000, 0x0000, 0x0000, 0x0000, 0x0000, 0x0000, 0x4410, 0x01e0, 0x0000,
   0x1f00, 0x1014, 0x0000, 0x0000, 0x0000, 0x0000, 0x0000, 0x0000, 0x0000,
   0x0000, 0x0000, 0x0000, 0x2410, 0x01f0, 0x0000, 0x0f00, 0x1014, 0x0000,
   0x0000, 0x0000, 0x0000, 0x0000, 0x0000, 0x0000, 0x0000, 0x0000, 0x0000,
   0x2408, 0x01e0, 0x0000, 0x1f00, 0x2018, 0x0000, 0x0000, 0x0000, 0x0000,
   0x0000, 0x0000, 0x0000, 0x0000, 0x0000, 0x0000, 0x1408, 0x01f0, 0x0000,
   0x1f00, 0x2038, 0x0000, 0x0000, 0x0000, 0x0000, 0x0000, 0x0000, 0x0000,
   0x0000, 0x0000, 0x0000, 0x1c04, 0x01f0, 0x0000, 0x1e00, 0x4030, 0x0000,
   0x0000, 0x0000, 0x0000, 0x0000, 0x0000, 0x0000, 0x0000, 0x0000, 0x0000,
   0x0c02, 0x00f0, 0x0000, 0x1e00, 0x8060, 0x0000, 0x0000, 0x0000, 0x0000,
   0x0000, 0x0000, 0x0000, 0x0000, 0x0000, 0x0000, 0x0603, 0x00f0, 0x0000,
   0x3e00, 0x0040, 0x0001, 0x0000, 0x0000, 0x0000, 0x0000, 0x0000, 0x0000,
   0x0000, 0x0000, 0x8000, 0x0200, 0x00f8, 0x0000, 0x7c00, 0x0180, 0x0002,
   0x0000, 0x0000, 0x0000, 0x0000, 0x0000, 0x0000, 0x0000, 0x0000, 0x6000,
   0x0180, 0x007c, 0x0000, 0xfc00, 0x0601, 0x000c, 0x0000, 0x0000, 0x0000,
   0x0000, 0x0000, 0x0000, 0x0000, 0x0000, 0x3800, 0x00e0, 0x007f, 0x0000,
   0xf800, 0xffff, 0xffff, 0xffff, 0xffff, 0xffff, 0xffff, 0xffff, 0xffff,
   0xffff, 0xffff, 0xffff, 0xffff, 0x003f, 0x0000, 0xf000, 0xffff, 0xffff,
   0xffff, 0xffff, 0xffff, 0xffff, 0xffff, 0xffff, 0xffff, 0xffff, 0xffff,
   0xffff, 0x001f, 0x0000, 0xc000, 0xffff, 0xffff, 0xffff, 0xffff, 0xffff,
   0xffff, 0xffff, 0xffff, 0xffff, 0xffff, 0xffff, 0xffff, 0x0007, 0x0000,
   0x0000, 0xffff, 0xffff, 0xffff, 0xffff, 0xffff, 0xffff, 0xffff, 0xffff,
   0xffff, 0xffff, 0xffff, 0xffff, 0x0001, 0x0000, 0x0000, 0x00f0, 0xe000,
   0x3e0f, 0xf000, 0x0000, 0x00f0, 0x3c00, 0x0000, 0x003e, 0x81f0, 0x001f,
   0x3c00, 0x0000, 0x0000, 0x0000, 0x00f0, 0xf000, 0x1e03, 0xf000, 0x0000,
   0x00f8, 0x3c00, 0x0000, 0x001c, 0x00f0, 0x003f, 0x3c00, 0x0000, 0x0000,
   0x0000, 0x00f0, 0xf000, 0x1e03, 0x4000, 0x0000, 0x00f0, 0x3c00, 0x0000,
   0x0018, 0x01f0, 0x007e, 0x3c00, 0x0000, 0x0000, 0x0000, 0x00f0, 0xfc00,
   0x1e00, 0x3000, 0x0000, 0x00f8, 0x3c00, 0x0000, 0x0008, 0x01e0, 0x00fc,
   0x3c00, 0x0000, 0x0000, 0x0000, 0x00f0, 0xfe00, 0x1f00, 0x7000, 0x0000,
   0x00f0, 0x3c00, 0x0000, 0x003c, 0x01e0, 0x01f8, 0x3c00, 0x0000, 0x0000,
   0x0000, 0x00f0, 0x3f00, 0x1f00, 0xf800, 0x0000, 0x00f8, 0x3c00, 0x0000,
   0x003c, 0x01e0, 0x03f0, 0x3c00, 0x0000, 0x0000, 0x0000, 0x00f0, 0x3f00,
   0x0f00, 0x7800, 0x0000, 0x00f0, 0x3c00, 0x0000, 0x003c, 0x01e0, 0x07e0,
   0x3c00, 0x0000, 0x0000, 0x0000, 0x00f0, 0x0fc0, 0x0f00, 0x7800, 0x0000,
   0x0078, 0x3c00, 0x0000, 0x003c, 0x03e0, 0x0fc0, 0x3c00, 0x0000, 0x0000,
   0x0000, 0x00f0, 0x0fe0, 0x0f00, 0x7800, 0x0000, 0x00f8, 0x3c00, 0x0000,
   0x007c, 0x03e0, 0x1f80, 0x3c00, 0x0000, 0x0000, 0x0000, 0x00f0, 0x03f0,
   0x0f00, 0x7800, 0x0000, 0x0078, 0x3c00, 0x0000, 0x003c, 0x03c0, 0x3f00,
   0x3c00, 0x0000, 0x0000, 0x0000, 0x00f0, 0x03f0, 0x0f80, 0x7800, 0x0000,
   0x00f8, 0x3c00, 0x0000, 0x007c, 0x03c0, 0x3e00, 0x3c00, 0x0000, 0x0000,
   0x0000, 0x00f0, 0x00f8, 0x0780, 0x7800, 0x0000, 0x0078, 0x3c00, 0x0000,
   0x0038, 0x03c0, 0x7c00, 0x3c00, 0x0000, 0x0000, 0x0000, 0x00f0, 0x00f8,
   0x0780, 0x0000, 0x0000, 0x0078, 0x3c00, 0x0000, 0x0010, 0x03c0, 0x7800,
   0x3c00, 0x0000, 0x0000, 0x0000, 0x00f0, 0x007c, 0x0780, 0x3800, 0x0000,
   0x00f8, 0x3c00, 0x0000, 0x0030, 0x07c0, 0xf800, 0x3c00, 0x0000, 0x0000,
   0x0000, 0x00f0, 0x003c, 0x0780, 0x3c00, 0x0000, 0x0078, 0x3c00, 0x0000,
   0x0078, 0x0780, 0xf000, 0x3c00, 0x0000, 0x0000, 0x0000, 0x00f0, 0x003c,
   0x0780, 0x7c00, 0x0000, 0x0078, 0x3c00, 0x0000, 0x0078, 0x07c0, 0xf000,
   0x3c00, 0x0000, 0x0000, 0x0000, 0x00f0, 0x003c, 0x07c0, 0x3c00, 0x0000,
   0x0078, 0x3c00, 0x0000, 0x0078, 0x0780, 0xf000, 0x3c00, 0x0000, 0x0000,
   0x0000, 0x00f0, 0x003c, 0x03c0, 0x3c00, 0x0000, 0x0078, 0x7c00, 0x0000,
   0x0078, 0x0780, 0xf000, 0x3c00, 0x0000, 0x0000, 0x0000, 0x00f0, 0x003c,
   0x03c0, 0x3c00, 0x0000, 0x0078, 0x3c00, 0x0000, 0x00f8, 0x0780, 0xf000,
   0x3c00, 0x0000, 0x0000, 0x0000, 0x00f0, 0x003c, 0x03c0, 0x3c00, 0x0000,
   0x0078, 0x7c00, 0x0000, 0x0078, 0x0f80, 0xf000, 0x3c00, 0x0000, 0x0000,
   0x0000, 0x00f0, 0x003c, 0x03c0, 0x3c00, 0x0000, 0x0078, 0x7c00, 0x0000,
   0x00f0, 0x0f00, 0xf000, 0x3c00, 0x0000, 0x0000, 0x0000, 0x00f0, 0x003c,
   0x03c0, 0x1c00, 0x0000, 0x0078, 0x3c00, 0x0000, 0x0070, 0x0f00, 0xf000,
   0x3c00, 0x0000, 0x0000, 0x0000, 0x00f0, 0x003c, 0x03e0, 0x0800, 0x0000,
   0x0078, 0x7800, 0x0000, 0x0000, 0x0f00, 0xf000, 0x3c00, 0x0000, 0x0000,
   0x0000, 0x00f0, 0x003c, 0x01e0, 0x1c00, 0x0000, 0x0078, 0x7c00, 0x0000,
   0x00f0, 0x0f00, 0xf000, 0x3c00, 0x0000, 0x0000, 0x0000, 0x00f0, 0x003c,
   0x01e0, 0x3e00, 0x0000, 0x0078, 0x7800, 0x0000, 0x00f0, 0x0f00, 0xf000,
   0x3c00, 0x0000, 0x0000, 0x0000, 0x01f0, 0x003e, 0x01e0, 0x1e00, 0x0000,
   0x0078, 0x7c00, 0x0000, 0x00f0, 0x1f00, 0xf000, 0x3e01, 0x0000, 0x0000,
   0x0000, 0xfff0, 0x003f, 0x01e0, 0x1e00, 0x0000, 0x0078, 0x7800, 0x0000,
   0x00f0, 0x1e00, 0xe000, 0x3fff, 0x0000, 0x0000, 0x0000, 0xffe0, 0x001f,
   0x01e0, 0x1e00, 0x0000, 0x0078, 0x7800, 0x0000, 0x00f0, 0x1e00, 0xe000,
   0x1fff, 0x0000, 0x0000, 0x0000, 0xffc0, 0x000f, 0x01f0, 0x1e00, 0x0000,
   0x0078, 0x7800, 0x0000, 0x01f0, 0x1e00, 0xc000, 0x0fff, 0x0000, 0x0000,
   0x0000, 0xff80, 0x0007, 0x00f0, 0x1e00, 0x0000, 0x0078, 0x7800, 0x0000,
   0x01f0, 0x1e00, 0x8000, 0x07ff, 0x0000, 0x0000, 0x0000, 0x0000, 0x0000,
   0x00f0, 0x1e00, 0x0000, 0x0078, 0x7800, 0x0000, 0x00e0, 0x1e00, 0x0000,
   0x0000, 0x0000, 0x0000, 0x0000, 0x0000, 0x0000, 0x00f0, 0x0c00, 0x0000,
   0x007c, 0x7800, 0x0000, 0x0060, 0x3e00, 0x0000, 0x0000, 0x0000, 0x0000,
   0x0000, 0x0000, 0x0000, 0x00f0, 0x0400, 0x0000, 0x0078, 0x7800, 0x0000,
   0x0080, 0x3c00, 0x0000, 0x0000, 0x0000, 0x0000, 0x0000, 0x0000, 0x0000,
   0x00f8, 0x0e00, 0x0000, 0x007c, 0x7800, 0x0000, 0x01e0, 0x3c00, 0x0000,
   0x0000, 0x0000, 0x0000, 0x0000, 0x0000, 0x0000, 0x00f8, 0x1f00, 0x0000,
   0x0078, 0x7800, 0x0000, 0x01e0, 0x3c00, 0x0000, 0x0000, 0x0000, 0x0000,
   0x0000, 0x0000, 0x0000, 0x0078, 0x0f00, 0x0000, 0x007c, 0x7800, 0x0000,
   0x01e0, 0x3c00, 0x0000, 0x0000, 0x0000, 0x0000, 0x0000, 0x0000, 0x0000,
   0x0078, 0x0f00, 0x0000, 0x007c, 0x7800, 0x0000, 0x01e0, 0x3c00, 0x0000,
   0x0000, 0x0000, 0x0000, 0x0000, 0x0000, 0x0000, 0x0078, 0x0f00, 0x0000,
   0x003c, 0x7800, 0x0000, 0x03e0, 0x7c00, 0x0000, 0x0000, 0x0000, 0x0000,
   0x0000, 0x0000, 0x0000, 0x0078, 0x0f00, 0x0000, 0x007c, 0x7800, 0x0000,
   0x03e0, 0x7800, 0x0000, 0x0000, 0x0000, 0x0000, 0x0000, 0x0000, 0x0000,
   0x007c, 0x0f00, 0x0000, 0x003c, 0x7800, 0x0000, 0x01e0, 0x7800, 0x0000,
   0x0000, 0x0000, 0x0000, 0x0000, 0x0000, 0x0000, 0x007c, 0x0f00, 0x0000,
   0x007c, 0x7800, 0x0000, 0x01c0, 0x7800, 0x0000, 0x0000, 0x0000, 0x0000,
   0x0000, 0x0000, 0x0000, 0x003c, 0x0400, 0x0000, 0x003c, 0x7800, 0x0000,
   0x0080, 0x7800, 0x0000, 0x0000, 0x0000, 0x0000, 0x0000, 0x0000, 0x0000,
   0x003c, 0x0700, 0x0000, 0x003c, 0x7800, 0x0000, 0x0180, 0xf800, 0x0000,
   0x0000, 0x0000, 0x0000, 0x0000, 0x0000, 0x0000, 0x003c, 0x0700, 0x0000,
   0x003c, 0x7800, 0x0000, 0x03c0, 0xf800, 0x0000, 0x0000, 0x0000, 0x0000,
   0x0000, 0x0000, 0x0000, 0x003c, 0x0f80, 0x0000, 0x003c, 0x7800, 0x0000,
   0x03c0, 0xf000, 0x0000, 0x0000, 0x0000, 0x0000, 0x0000, 0x0000, 0x0000,
   0x003e, 0x0780, 0x0000, 0x003c, 0x7800, 0x0000, 0x03c0, 0xf000, 0x0000,
   0x0000, 0x0000, 0x0000, 0x0000, 0x0000, 0x0000, 0x003e, 0x0780, 0x0000,
   0x003c, 0xf800, 0x0000, 0x03c0, 0xf000, 0x0000, 0x0000, 0x0000, 0x0000,
   0x0000, 0x0000, 0x0000, 0x001e, 0x0780, 0x0000, 0x003c, 0x7800, 0x0000,
   0x07c0, 0xf000, 0x0000, 0x0000, 0x0000, 0x0000, 0x0000, 0x0000, 0x0000,
   0x001e, 0x0780, 0x0000, 0x003c, 0x7800, 0x0000, 0x07c0, 0xf000, 0x0001,
   0x0000, 0x0000, 0x0000, 0x0000, 0x0000, 0x0000, 0x001e, 0x0780, 0x0000,
   0x003c, 0xf800, 0x0000, 0x0380, 0xf000, 0x0001, 0x0000, 0x0000, 0x0000,
   0x0000, 0x0000, 0x0000, 0x001e, 0x0780, 0x0000, 0x003c, 0xf800, 0x0000,
   0x0380, 0xe000, 0x0001, 0x0000, 0x0000, 0x0000, 0x0000, 0x0000, 0x0000,
   0x001f, 0x0000, 0x0000, 0x003c, 0x7800, 0x0000, 0x0000, 0xe000, 0x0001,
   0x0000, 0x0000, 0x0000, 0x0000, 0x0000, 0x0000, 0x001f, 0x0380, 0x0000,
   0x003c, 0xf000, 0x0000, 0x0780, 0xe000, 0x0001, 0x0000, 0x0000, 0x0000,
   0x0000, 0x0000, 0x0000, 0x000f, 0x07c0, 0x0000, 0x003c, 0xf800, 0x0000,
   0x0780, 0xe000, 0x0001, 0x0000, 0x0000, 0x0000, 0x0000, 0x0000, 0x0000,
   0x000f, 0x07c0, 0x0000, 0x003c, 0xf000, 0x0000, 0x0780, 0xe000, 0x0003,
   0x0000, 0x0000, 0x0000, 0x0000, 0x0000, 0x0000, 0x000f, 0x03c0, 0x0000,
   0x003c, 0xf800, 0x0000, 0x0780, 0xe000, 0x0003, 0x0000, 0x0000, 0x0000,
   0x0000, 0x0000, 0x0000, 0x000f, 0x03c0, 0x0000, 0x003c, 0xf000, 0x0000,
   0x0780, 0xc000, 0x0003, 0x0000, 0x0000, 0x0000, 0x0000, 0x0000, 0x8000,
   0x000f, 0x03c0, 0x0000, 0x003c, 0xf800, 0x0000, 0x0f80, 0xc000, 0x0003,
   0x0000, 0x0000, 0x0000, 0x0000, 0x0000, 0x8000, 0x000f, 0x03c0, 0x0000,
   0x003c, 0xf000, 0x0000, 0x0f80, 0xc000, 0x0003, 0x0000, 0x0000, 0x0000,
   0x0000, 0x0000, 0x8000, 0x0007, 0x03c0, 0x0000, 0x003c, 0xf000, 0x0000,
   0x0700, 0xc000, 0x0003, 0x0000, 0x0000, 0x0000, 0x0000, 0x0000, 0x8000,
   0x0007, 0x0180, 0x0000, 0x003c, 0xf000, 0x0000, 0x0700, 0xc000, 0x0007,
   0x0000, 0x0000, 0x0000, 0x0000, 0x0000, 0x8000, 0x0007, 0x0080, 0x0000,
   0x003e, 0xf000, 0x0000, 0x0000, 0xc000, 0x0007, 0x0000, 0x0000, 0x0000,
   0x0000, 0x0000, 0x8000, 0x0007, 0x01c0, 0x0000, 0x003c, 0xf000, 0x0000,
   0x0f00, 0x8000, 0x0007, 0x0000, 0x0000, 0x0000, 0x0000, 0x0000, 0xc000,
   0x0007, 0x03e0, 0x0000, 0x003e, 0xf000, 0x0000, 0x0f00, 0x8000, 0x0007,
   0x0000, 0x0000, 0x0000, 0x0000, 0x0000, 0xc000, 0x0007, 0x03e0, 0x0000,
   0x003c, 0xf000, 0x0000, 0x0f00, 0x8000, 0x0007, 0x0000, 0x0000, 0x0000,
   0x0000, 0x0000, 0xc000, 0x0003, 0x01e0, 0x0000, 0x003e, 0xf000, 0x0000,
   0x0f00, 0x8000, 0x0007, 0x0000, 0x0000, 0x0000, 0x0000, 0x0000, 0xc000,
   0x0003, 0x01e0, 0x0000, 0x003e, 0xf000, 0x0000, 0x0f00, 0x8000, 0x000f,
   0x0000, 0x0000, 0x0000, 0x0000, 0x0000, 0xc000, 0x0003, 0x01e0, 0x0000,
   0x001e, 0xf000, 0x0000, 0x1f00, 0x8000, 0x000f, 0x0000, 0x0000, 0x0000,
   0x0000, 0x0000, 0xc000, 0x0003, 0x01e0, 0x0000, 0x003e, 0xf000, 0x0000,
   0x1f00, 0x0000, 0x000f, 0x0000, 0x0000, 0x0000, 0x0000, 0x0000, 0xe000,
   0x0003, 0x01e0, 0x0000, 0x001e, 0xf000, 0x0000, 0x0e00, 0x0000, 0x000f,
   0x0000, 0x0000, 0x0000, 0x0000, 0x0000, 0xe000, 0x0003, 0x0080, 0x0000,
   0x003e, 0xf000, 0x0000, 0x0400, 0x0000, 0x000f, 0x0000, 0x0000, 0x0000,
   0x0000, 0x0000, 0xe000, 0x0001, 0x0060, 0x0000, 0x001e, 0xf000, 0x0000,
   0x0c00, 0x0000, 0x000f, 0x0000, 0x0000, 0x0000, 0x0000, 0x0000, 0xe000,
   0x0001, 0x00e0, 0x0000, 0x001e, 0xf000, 0x0000, 0x1e00, 0x0000, 0x001f,
   0x0000, 0x0000, 0x0000, 0x0000, 0x0000, 0xe000, 0x0001, 0x01f0, 0x0000,
   0x001e, 0xf000, 0x0000, 0x1e00, 0x0000, 0x001f, 0x0000, 0x0000, 0x0000,
   0x0000, 0x0000, 0xe000, 0x0001, 0x01f0, 0x0000, 0x001e, 0xf000, 0x0000,
   0x1e00, 0x0000, 0x001e, 0x0000, 0x0000, 0x0000, 0x0000, 0x0000, 0xf000,
   0x0001, 0x00f0, 0x0000, 0x001e, 0xf000, 0x0000, 0x1e00, 0x0000, 0x001e,
   0x0000, 0x0000, 0x0000, 0x0000, 0x0000, 0xf000, 0x0001, 0x00f0, 0x0000,
   0x001e, 0xf000, 0x0000, 0x1e00, 0x0000, 0x001e, 0x0000, 0x0000, 0x0000,
   0x0000, 0x0000, 0xf000, 0x0000, 0x00e0, 0x0000, 0x001e, 0xf000, 0x0001,
   0x1c00, 0x0000, 0x001e, 0x0000, 0x0000, 0x0000, 0x0000, 0x0000, 0xf000,
   0x0000, 0x0000, 0x0000, 0x001e, 0xf000, 0x0000, 0x0000, 0x0000, 0x003e,
   0x0000, 0x0000, 0x0000, 0x0000, 0x0000, 0xf000, 0x0000, 0x0000, 0x0000,
   0x001e, 0xf000, 0x0001, 0x0000, 0x0000, 0x003c, 0x0000, 0x0000, 0x0000,
   0x0000, 0x0000, 0xf000, 0x0000, 0x0000, 0x0000, 0x001e, 0xf000, 0x0001,
   0x0000, 0x0000, 0x003c, 0x0000, 0x0000, 0x0000, 0x0000, 0x0000, 0xf800,
   0x0000, 0x0000, 0x0000, 0x001e, 0xf000, 0x0000, 0x0000, 0x0000, 0x003c,
   0x0000, 0x0000, 0x0000, 0x0000, 0x0000, 0xf800, 0x0000, 0x0000, 0x0000,
   0x001e, 0xe000, 0x0001, 0x0000, 0x0000, 0x003c, 0x0000, 0x0000, 0x0000,
   0x0000, 0x0000, 0x7800, 0x0000, 0x0000, 0x0000, 0x001e, 0xf000, 0x0001,
   0x0000, 0x0000, 0x003c, 0x0000, 0x0000, 0x0000, 0x0000, 0x0000, 0xf800,
   0x6db7, 0xb6db, 0xdb6d, 0x001f, 0xe000, 0xb6db, 0xdb6d, 0x6db6, 0x003f,
   0x0000, 0x0000, 0x0000, 0x0000, 0x0000, 0xf000, 0xffff, 0xffff, 0xffff,
   0x001f, 0xe000, 0xffff, 0xffff, 0xffff, 0x003f, 0x0000, 0x0000, 0x0000,
   0x0000, 0x0000, 0xf000, 0xffff, 0xffff, 0xffff, 0x000f, 0xc000, 0xffff,
   0xffff, 0xffff, 0x001f, 0x0000, 0x0000, 0x0000, 0x0000, 0x0000, 0xe000,
   0xffff, 0xffff, 0xffff, 0x0007, 0xc000, 0xffff, 0xffff, 0xffff, 0x000f,
   0x0000, 0x0000, 0x0000, 0x0000, 0x0000, 0x8000, 0xb6da, 0xdb6d, 0x6db6,
   0x0001, 0x0000, 0xb6da, 0xdb6d, 0x6db6, 0x0003, 0x0000, 0x0000, 0x0000,
   0x0000, 0x0000, 0x0000, 0x0000, 0x0000, 0x0000, 0x0000, 0x0000, 0x0000,
   0x0000, 0x0000, 0x0000, 0x0000, 0x0000, 0x0000, 0x0000, 0x0000, 0x0000,
   0x0000, 0x0000, 0x0000, 0x0000, 0x0000, 0x0000, 0x0000, 0x0000, 0x0000,
   0x0000, 0x0000, 0x0000, 0x0000, 0x0000, 0x0000, 0x0000, 0x0000, 0x0000,
   0x0000, 0x0000, 0x0000, 0x0000, 0x0000, 0x0000, 0x0000, 0x0000, 0x0000,
   0x0000, 0x0000, 0x0000, 0x0000, 0x0000, 0x0000, 0x0000, 0x0000, 0x0000,
   0x0000, 0x0000, 0x0000, 0x0000, 0x0000, 0x0000, 0x0000, 0x0000, 0x0000,
   0x0000, 0x0000, 0x0000, 0x0000, 0x0000, 0x0000, 0x0000, 0x0000, 0x0000,
   0x0000, 0x0000, 0x0000, 0x0000, 0x0000, 0x0000, 0x0000, 0x0000, 0x0000,
   0x0000, 0x0000, 0x0000, 0x0000, 0x0000, 0x0000, 0x0000, 0x0000, 0x0000,
   0x0000, 0x0000, 0x0000, 0x0000, 0x0000, 0x0000, 0x0000, 0x0000, 0x0000,
   0x0000, 0x0000, 0x0000, 0x0000, 0x0000, 0x0000, 0x0000, 0x0000, 0x0000,
   0x0000, 0x0000, 0x0000, 0x0000, 0x0000, 0x0000, 0x0000, 0x0000, 0x0000,
   0x0000, 0x0000, 0x0000, 0x0000, 0x0000, 0x0000, 0x0000, 0x0000, 0x0000,
   0x0000, 0x0000, 0x0000, 0x0000, 0x0000, 0x0000, 0x0000, 0x0000, 0x0000 };
